<svg width="9" height="17" viewBox="0 0 9 17" fill="none" xmlns="http://www.w3.org/2000/svg">
<g id="logo">
<path id="Vector" d="M0.287397 8.82813H2.24037V16.3082C2.24037 16.4559 2.36898 16.5755 2.52773 16.5755H5.83908C5.99783 16.5755 6.12645 16.4559 6.12645 16.3082V8.86338H8.37158C8.51756 8.86338 8.6404 8.76147 8.65707 8.62656L8.99805 5.87279C9.00741 5.79704 8.98163 5.72115 8.92713 5.6643C8.8726 5.60742 8.79455 5.57485 8.71264 5.57485H6.12658V3.84863C6.12658 3.32828 6.42773 3.0644 7.0218 3.0644C7.10646 3.0644 8.71264 3.0644 8.71264 3.0644C8.87139 3.0644 9 2.94468 9 2.79706V0.26932C9 0.12163 8.87139 0.00197482 8.71264 0.00197482H6.38238C6.36596 0.00123022 6.32946 0 6.27566 0C5.87134 0 4.46595 0.0738453 3.35579 1.02399C2.12574 2.07693 2.29674 3.33761 2.3376 3.5562V5.57479H0.287363C0.128614 5.57479 0 5.69444 0 5.84213V8.56075C3.47981e-05 8.70841 0.128648 8.82813 0.287397 8.82813Z" fill="#605CFF"/>
</g>
</svg>
