<svg width="18" height="17" viewBox="0 0 18 17" fill="none" xmlns="http://www.w3.org/2000/svg">
<g id="Logo">
<path id="Vector" d="M17.855 6.75359C17.935 6.75359 17.9999 6.81332 17.9999 6.887V8.28772C17.9999 8.81199 17.947 9.32459 17.8456 9.82186C17.061 13.6844 13.3658 16.6033 8.93648 16.5752C3.9665 16.5437 -0.0109811 12.8458 2.27767e-05 8.26904C0.0109563 3.70053 4.03625 0 8.99994 0C11.4318 0 13.6382 0.888405 15.2582 2.3315C15.3167 2.38359 15.3182 2.46945 15.2607 2.52241L13.1087 4.50405C13.0533 4.55507 12.9638 4.5564 12.907 4.50664C11.8903 3.61542 10.5146 3.06827 8.99994 3.06827C5.87207 3.06827 3.35331 5.37122 3.33208 8.2515C3.31074 11.1507 5.8566 13.5071 8.99994 13.5071C11.5503 13.5071 13.7074 11.9557 14.4187 9.82186H9.14481C9.0648 9.82186 8.99994 9.76213 8.99994 9.68844V6.88697C8.99994 6.81328 9.0648 6.75355 9.14481 6.75355H17.855V6.75359Z" fill="#2196F3"/>
<g id="Group">
<path id="Vector_2" d="M17.8551 6.75406H16.7686C16.8487 6.75406 16.9135 6.81379 16.9135 6.88747V8.28819C16.9135 8.81246 16.8606 9.32507 16.7592 9.82233C16.0107 13.5072 12.6131 16.3333 8.45624 16.561C8.61528 16.5696 8.77538 16.5747 8.93661 16.5757C13.3659 16.6038 17.0611 13.6848 17.8457 9.82233C17.9471 9.32507 18 8.81246 18 8.28819V6.88744C18 6.81379 17.9352 6.75406 17.8551 6.75406Z" fill="#1E88E5"/>
</g>
<path id="Vector_3" d="M3.85196 6.10192L1.11865 4.28328C2.65209 1.72927 5.60703 1.52588e-05 9.00022 1.52588e-05C11.4321 1.52588e-05 13.6385 0.88842 15.2585 2.33152C15.317 2.38361 15.3185 2.46947 15.2609 2.52243L13.109 4.50407C13.0537 4.55499 12.9642 4.55658 12.9076 4.50692C11.8908 3.61553 10.5151 3.06832 9.00022 3.06832C6.71746 3.06832 4.74978 4.31096 3.85196 6.10192Z" fill="#F44336"/>
<path id="Vector_4" d="M3.06281 5.57686L3.85188 6.10187C4.67137 4.46718 6.38234 3.28987 8.4105 3.09676C8.42575 3.09524 8.44041 3.09339 8.45595 3.09203C8.27747 3.07643 8.09659 3.06827 7.91364 3.06827C5.85149 3.06827 4.05431 4.06937 3.06281 5.57686Z" fill="#E53935"/>
<path id="Vector_5" d="M14.1719 2.33152C14.2304 2.38361 14.2319 2.46947 14.1744 2.52246L12.4277 4.13089C12.595 4.24809 12.7552 4.37344 12.9072 4.50669C12.964 4.55645 13.0535 4.55512 13.1089 4.5041L15.2609 2.52246C15.3184 2.46947 15.3169 2.38364 15.2584 2.33152C13.6384 0.88842 11.432 1.52588e-05 9.00012 1.52588e-05C8.81763 1.52588e-05 8.63658 0.00561595 8.45679 0.01549C10.673 0.137054 12.6734 0.996679 14.1719 2.33152Z" fill="#E53935"/>
<path id="Vector_6" d="M15.6022 13.9201C13.9586 15.5533 11.6089 16.5755 9.00017 16.5755C5.47662 16.5755 2.42606 14.7109 0.94873 11.9944L3.73924 10.2335C4.57662 12.1522 6.61673 13.5072 9.00017 13.5072C10.4959 13.5072 11.8562 12.9736 12.8689 12.1018L15.6022 13.9201Z" fill="#4CAF50"/>
<path id="Vector_7" d="M3.73937 10.2335L2.9165 10.7527C3.87222 12.3923 5.75163 13.5072 7.91376 13.5072C8.09661 13.5072 8.27734 13.4989 8.45576 13.4834C6.30952 13.2949 4.51217 12.0043 3.73937 10.2335Z" fill="#43A047"/>
<path id="Vector_8" d="M9.00003 16.5757C11.6087 16.5757 13.9585 15.5535 15.602 13.9203L14.9326 13.4749C13.3894 15.2435 11.0743 16.4168 8.45813 16.5606C8.63743 16.5705 8.81806 16.5757 9.00003 16.5757Z" fill="#43A047"/>
<path id="Vector_9" d="M3.33217 8.28838C3.33217 8.97607 3.47666 9.63277 3.73924 10.2341L0.948693 11.995C0.341724 10.8797 0.000183105 9.62076 0.000183105 8.28838C0.000183105 6.83596 0.405814 5.47088 1.11857 4.28392L3.85188 6.10256C3.51832 6.76723 3.33217 7.50797 3.33217 8.28838Z" fill="#FFC107"/>
<path id="Vector_10" d="M2.9164 10.753L3.73926 10.2338C3.47668 9.63248 3.33219 8.97577 3.33219 8.28809C3.33219 7.50768 3.51834 6.76693 3.8519 6.10226L3.06283 5.57726C2.55043 6.35633 2.25304 7.27054 2.2458 8.25189C2.23912 9.15687 2.48265 10.009 2.9164 10.753Z" fill="#FFB300"/>
</g>
</svg>
