<svg width="623" height="510" viewBox="0 0 623 510" fill="none" xmlns="http://www.w3.org/2000/svg">
<path opacity="0.3" d="M311.5 509.18C483.537 509.18 623 497.819 623 483.805C623 469.792 483.537 458.431 311.5 458.431C139.463 458.431 0 469.792 0 483.805C0 497.819 139.463 509.18 311.5 509.18Z" fill="#3A36DB"/>
<path d="M490.877 227.05L483.879 227.991L491.977 274.433L498.975 273.491L490.877 227.05Z" fill="#99B2C6"/>
<path d="M490.872 227.083L483.951 228.05L485.524 223.352L486.31 220.865L487.883 222.937L490.872 227.083Z" fill="#FF8C64"/>
<path d="M498.42 270.186L491.422 271.127L492.018 274.542L499.016 273.6L498.42 270.186Z" fill="#35252F"/>
<path d="M499.052 276.275L492.916 277.105C492.602 277.105 492.444 276.966 492.444 276.69L491.973 274.341L499.052 273.374L499.523 275.723C499.523 275.999 499.366 276.275 499.052 276.275Z" fill="#EF452F"/>
<path d="M487.882 222.937L485.522 223.352L486.309 220.865L487.882 222.937Z" fill="#35252F"/>
<path d="M491.441 271.13L498.439 270.188L498.01 267.73L491.013 268.671L491.441 271.13Z" fill="#F68407"/>
<path d="M485.996 230.122L491.974 264.53C491.974 264.806 492.288 264.944 492.603 264.944C492.917 264.944 493.075 264.668 493.075 264.392L487.097 229.984C487.097 229.708 486.782 229.57 486.468 229.57C486.153 229.57 485.996 229.846 485.996 230.122Z" fill="#99B2C6"/>
<path d="M488.826 229.708L494.804 264.116C494.804 264.392 495.119 264.53 495.433 264.53C495.748 264.53 495.905 264.254 495.905 263.978L489.927 229.57C489.927 229.294 489.613 229.156 489.298 229.156C488.984 229.156 488.826 229.432 488.826 229.708Z" fill="#99B2C6"/>
<path d="M503.53 227.211L496.451 227.231L496.625 274.213L503.704 274.193L503.53 227.211Z" fill="#03A89E"/>
<path d="M503.614 227.22L496.535 227.358L498.895 222.798L499.996 220.587L501.255 222.798L503.614 227.22Z" fill="#FF8C64"/>
<path d="M503.768 270.876L496.689 270.896L496.702 274.351L503.781 274.33L503.768 270.876Z" fill="#35252F"/>
<path d="M503.3 276.966H497.165C496.851 276.966 496.693 276.828 496.693 276.551V274.202H503.772V276.551C503.772 276.828 503.615 276.966 503.3 276.966Z" fill="#EF452F"/>
<path d="M501.256 222.799H498.896L499.998 220.588L501.256 222.799Z" fill="#35252F"/>
<path d="M496.687 270.898L503.766 270.878L503.757 268.391L496.678 268.411L496.687 270.898Z" fill="#3C7341"/>
<path d="M498.265 229.569L498.422 264.391C498.422 264.667 498.736 264.805 498.894 264.805C499.208 264.805 499.366 264.529 499.366 264.391L499.208 229.569C499.208 229.292 498.894 229.154 498.736 229.154C498.579 229.154 498.265 229.292 498.265 229.569Z" fill="#03A89E"/>
<path d="M501.097 229.57L501.255 264.392C501.255 264.668 501.569 264.806 501.727 264.806C502.041 264.806 502.199 264.53 502.199 264.392L502.041 229.57C502.041 229.294 501.727 229.155 501.569 229.155C501.255 229.155 501.097 229.294 501.097 229.57Z" fill="#03A89E"/>
<path d="M515.859 227.927L508.85 227.052L501.325 273.569L508.334 274.444L515.859 227.927Z" fill="#3A36DB"/>
<path d="M515.885 227.912L508.806 227.083L511.795 222.937L513.368 220.865L514.312 223.214L515.885 227.912Z" fill="#FF8C64"/>
<path d="M508.905 271.102L501.896 270.227L501.343 273.648L508.351 274.522L508.905 271.102Z" fill="#35252F"/>
<path d="M507.39 277.105L501.255 276.276C500.94 276.276 500.783 275.999 500.783 275.861L501.098 273.512L508.177 274.341L507.862 276.69C507.862 276.967 507.705 277.105 507.39 277.105Z" fill="#EF452F"/>
<path d="M514.312 223.214L511.795 222.937L513.368 220.865L514.312 223.214Z" fill="#35252F"/>
<path d="M501.849 270.129L508.858 271.004L509.256 268.541L502.247 267.666L501.849 270.129Z" fill="#1B48CA"/>
<path opacity="0.6" d="M510.221 229.57L504.715 263.978C504.715 264.254 504.872 264.53 505.187 264.53C505.501 264.53 505.816 264.392 505.816 264.116L511.322 229.708C511.322 229.432 511.165 229.156 510.85 229.156C510.535 229.156 510.221 229.294 510.221 229.57Z" fill="#3A36DB"/>
<path opacity="0.6" d="M512.897 229.985L507.391 264.392C507.391 264.668 507.548 264.945 507.863 264.945C508.177 264.945 508.492 264.807 508.492 264.53L513.998 230.123C513.998 229.847 513.84 229.57 513.526 229.57C513.211 229.432 513.054 229.708 512.897 229.985Z" fill="#3A36DB"/>
<path d="M518.246 245.876L517.774 248.363L517.46 250.712L516.988 254.167L516.673 256.378L516.044 259.97L515.729 262.181L515.257 265.636L514.943 267.847L514.471 271.44L514.156 273.65L513.527 277.243L513.212 279.316L512.897 281.25H485.053L484.739 279.316L484.424 277.243L483.952 273.65L483.638 271.44L483.166 267.847L482.851 265.636L482.222 262.181L481.907 259.97L481.435 256.378L481.121 254.167L480.649 250.712L480.334 248.363L479.862 245.876H518.246Z" fill="#FF69B4"/>
<path d="M517.773 248.363L517.458 250.712H480.648L480.333 248.363H517.773Z" fill="#FF2291"/>
<path d="M516.988 254.167L516.673 256.378H481.435L481.12 254.167H516.988Z" fill="#FF2291"/>
<path d="M516.043 259.969L515.728 262.18H482.221L481.906 259.969H516.043Z" fill="#FF2291"/>
<path d="M515.255 265.636L514.941 267.847H483.164L482.849 265.636H515.255Z" fill="#FF2291"/>
<path d="M514.469 271.44L514.154 273.651H483.951L483.636 271.44H514.469Z" fill="#FF2291"/>
<path d="M513.524 277.242L513.21 279.315H484.736L484.422 277.242H513.524Z" fill="#FF2291"/>
<path opacity="0.2" d="M205.066 83.8765C229.827 83.8765 249.9 66.2447 249.9 44.4947C249.9 22.7446 229.827 5.11278 205.066 5.11278C180.305 5.11278 160.232 22.7446 160.232 44.4947C160.232 66.2447 180.305 83.8765 205.066 83.8765Z" fill="#3A36DB"/>
<path d="M205.066 78.7638C229.827 78.7638 249.9 61.1319 249.9 39.3819C249.9 17.6319 229.827 0 205.066 0C180.305 0 160.232 17.6319 160.232 39.3819C160.232 61.1319 180.305 78.7638 205.066 78.7638Z" fill="#3A36DB"/>
<path d="M205.064 71.4394C225.2 71.4394 241.561 57.0684 241.561 39.3811C241.561 21.6938 225.2 7.32289 205.064 7.32289C184.929 7.32289 168.568 21.6938 168.568 39.3811C168.568 57.0684 184.929 71.4394 205.064 71.4394Z" fill="white"/>
<path opacity="0.2" d="M168.568 39.3811C168.568 40.2102 168.568 41.0393 168.725 41.8684C170.141 25.4247 186.03 12.2974 205.064 12.2974C224.256 12.2974 239.988 25.2866 241.403 41.8684C241.403 41.0393 241.561 40.2102 241.561 39.3811C241.561 21.6938 225.2 7.32289 205.064 7.32289C184.929 7.32289 168.568 21.6938 168.568 39.3811Z" fill="#3A36DB"/>
<path d="M205.065 42.6984C205.38 42.6984 205.695 42.5602 205.852 42.422L223.785 21.2802C224.1 20.8656 223.943 20.4511 223.628 20.1747C223.156 19.8984 222.684 20.0366 222.37 20.3129L204.908 41.0402L184.929 33.302C184.457 33.1639 183.986 33.302 183.671 33.7166C183.514 34.1311 183.671 34.5457 184.143 34.822L204.593 42.6984C204.751 42.6984 204.908 42.6984 205.065 42.6984Z" fill="#06152B"/>
<path d="M473.908 255.103L436.455 366.279C434.733 371.195 429.567 374.598 423.827 374.598L271.716 374.977C263.68 374.977 257.223 369.052 257.653 361.993C258.084 355.439 264.254 350.271 271.716 350.271H329.834L376.472 236.321H457.836C469.029 236.321 477.065 245.775 473.908 255.103Z" fill="#99B2C6"/>
<path d="M379.772 359.976C360.672 359.976 345.189 359.751 345.189 359.472C345.189 359.194 360.672 358.968 379.772 358.968C398.872 358.968 414.356 359.194 414.356 359.472C414.356 359.751 398.872 359.976 379.772 359.976Z" fill="#06152B"/>
<path d="M462.715 239.851C462.428 239.725 452.096 266.322 439.611 299.347C427.127 332.246 417.225 358.968 417.512 359.095C417.799 359.221 428.131 332.624 440.616 299.599C453.1 266.7 463.002 239.851 462.715 239.851Z" fill="#06152B"/>
<path d="M351.503 473.422L360.83 473.17V374.599H351.503V473.422Z" fill="#FFD66B"/>
<path d="M399.288 472.917H313.044L352.076 461.069H361.404L399.288 472.917Z" fill="#FFD66B"/>
<path d="M421.102 210.732L406.895 273.379L409.478 320.396L313.477 306.404L317.208 265.312L317.351 231.278L293.817 271.362L275.449 240.228L309.028 186.909C315.199 181.363 322.374 177.203 330.984 174.43C335.145 173.043 339.594 172.287 344.76 172.161C355.809 175.186 366.859 175.186 378.052 172.161C379.343 172.287 381.209 172.413 383.648 172.665C383.792 172.665 383.935 172.665 384.079 172.665C404.456 174.808 419.954 189.682 421.102 207.707V210.732Z" fill="#FF69B4"/>
<path d="M383.505 172.665C383.505 172.665 422.967 172.917 427.846 209.471L428.564 236.32L394.554 236.068L383.505 172.665Z" fill="#FF69B4"/>
<path d="M289.225 219.682C289.225 219.934 320.221 220.186 358.535 220.186C396.85 220.186 427.846 219.934 427.846 219.682C427.846 219.43 396.85 219.178 358.535 219.178C320.221 219.178 289.225 219.43 289.225 219.682Z" fill="white"/>
<path d="M289.225 225.48C289.225 225.732 320.221 225.984 358.535 225.984C396.85 225.984 427.846 225.732 427.846 225.48C427.846 225.228 396.85 224.976 358.535 224.976C320.221 224.976 289.225 225.228 289.225 225.48Z" fill="white"/>
<path d="M291.521 214.892C291.521 215.144 322.086 215.396 359.683 215.396C397.28 215.396 427.846 215.144 427.846 214.892C427.846 214.64 397.28 214.388 359.683 214.388C321.943 214.388 291.521 214.64 291.521 214.892Z" fill="white"/>
<path d="M317.782 271.363C318.069 271.363 317.925 256.489 317.495 238.212C317.064 219.935 316.49 205.061 316.06 205.061C315.773 205.061 315.916 219.935 316.347 238.212C316.921 256.489 317.495 271.363 317.782 271.363Z" fill="#06152B"/>
<path d="M331.271 247.287C331.271 247.287 312.616 248.422 309.315 252.834C306.015 257.119 300.849 269.472 302.714 269.598C304.723 269.724 306.015 268.716 306.015 268.716L311.181 260.775C311.181 260.775 310.32 268.464 313.477 268.59C316.49 268.716 331.701 271.363 331.701 271.363L331.271 247.287Z" fill="#FFBE9D"/>
<path d="M428.421 229.135V271.362C427.847 281.194 417.228 288.253 406.322 286.236L331.127 272.623L331.271 245.522L396.133 256.488L396.994 227.875L428.421 229.135Z" fill="#FF69B4"/>
<path d="M385.513 282.833C385.513 282.833 385.226 282.707 384.509 282.581C383.791 282.455 382.787 282.203 381.639 281.951C379.056 281.447 375.325 280.817 370.589 279.934C360.975 278.169 347.486 275.775 331.414 272.875L331.844 273.254C331.844 264.808 331.844 255.354 331.844 245.396L331.27 245.901C335.575 246.657 340.024 247.413 344.472 248.17C363.414 251.321 381.208 254.346 396.132 256.867L396.706 256.993V256.489C396.276 243.884 395.845 233.422 395.558 225.985C395.415 222.329 395.271 219.556 395.128 217.539C395.128 216.657 394.984 215.901 394.984 215.27C394.984 214.766 394.841 214.514 394.841 214.514C394.841 214.514 394.841 214.766 394.841 215.27C394.841 215.901 394.841 216.531 394.841 217.539C394.841 219.556 394.984 222.455 394.984 226.111C395.128 233.548 395.415 244.01 395.845 256.615L396.419 256.237C381.495 253.716 363.701 250.691 344.759 247.413C340.167 246.657 335.719 245.901 331.557 245.144L330.983 245.018V245.522C330.983 255.48 330.983 264.808 330.983 273.38V273.758L331.414 273.884C347.486 276.657 360.975 278.926 370.589 280.564C375.325 281.321 379.056 281.951 381.639 282.329C382.93 282.455 383.791 282.707 384.652 282.833C385.226 282.833 385.513 282.833 385.513 282.833Z" fill="#06152B"/>
<path d="M342.32 172.665C342.32 172.665 342.176 172.918 342.033 173.296C341.889 173.674 341.602 174.304 341.459 175.186C341.028 176.825 340.885 179.346 341.746 182.245C342.607 185.144 344.903 188.422 348.203 191.069C351.647 193.842 356.526 195.607 361.836 195.607C367.145 195.607 372.168 193.716 375.325 190.817C378.482 187.917 379.917 184.262 380.347 181.237C380.778 178.212 380.06 175.691 379.343 174.178C379.056 173.422 378.625 172.791 378.338 172.413C378.051 172.035 377.908 171.783 377.908 171.909C377.764 171.909 378.338 172.791 378.912 174.304C379.486 175.817 379.917 178.212 379.486 181.111C379.056 184.01 377.621 187.413 374.464 190.186C371.45 192.959 366.715 194.724 361.692 194.724C356.67 194.724 351.934 193.086 348.634 190.438C345.333 187.917 343.181 184.892 342.176 181.993C341.172 179.22 341.315 176.699 341.459 175.186C342.176 173.548 342.463 172.665 342.32 172.665Z" fill="#263238"/>
<path d="M338.731 274.766C338.875 274.766 338.875 273.128 338.731 270.607C338.588 268.086 338.444 264.556 338.444 260.649C338.444 256.741 338.444 253.212 338.588 250.691C338.731 248.17 338.731 246.531 338.588 246.531C338.444 246.531 338.157 248.044 337.87 250.691C337.583 253.212 337.44 256.867 337.44 260.775C337.44 264.682 337.727 268.212 338.014 270.859C338.301 273.254 338.588 274.892 338.731 274.766Z" fill="#FAFAFA"/>
<path d="M342.607 275.523C342.751 275.523 342.751 273.884 342.751 271.363C342.751 268.464 342.607 265.06 342.607 261.405C342.607 257.75 342.607 254.346 342.607 251.447C342.607 248.926 342.607 247.287 342.464 247.287C342.32 247.287 342.033 248.8 341.89 251.447C341.746 253.968 341.603 257.497 341.603 261.405C341.603 265.313 341.746 268.842 342.033 271.363C342.177 274.01 342.464 275.523 342.607 275.523Z" fill="#FAFAFA"/>
<path d="M267.268 443.295L253.062 477.707L232.828 502.035C231.393 503.799 231.967 506.32 233.976 507.455C235.124 508.085 236.559 508.211 237.851 507.707C246.03 504.682 275.878 493.715 276.739 491.194C277.744 488.169 296.973 451.237 296.973 451.237L267.268 443.295Z" fill="#FF69B4"/>
<g opacity="0.6">
<g opacity="0.6">
<path d="M234.12 507.456L277.887 488.926L277.313 490.313C276.739 491.573 275.735 492.582 274.443 493.212C270.856 494.851 260.811 499.388 238.281 507.708C236.846 508.212 235.268 508.086 234.12 507.456Z" fill="#93079F"/>
</g>
</g>
<g opacity="0.6">
<g opacity="0.6">
<g opacity="0.6">
<path opacity="0.6" d="M274.874 475.187C273.582 475.439 272.721 476.573 273.008 477.708C273.295 478.842 274.587 479.599 275.878 479.346C277.17 479.094 278.174 477.708 277.887 476.699C277.457 475.691 275.878 474.809 274.73 475.313" fill="white"/>
</g>
</g>
</g>
<path d="M249.618 495.606C249.331 495.606 249.331 493.589 247.322 491.825C245.456 490.06 243.16 489.808 243.16 489.556C243.16 489.43 243.734 489.304 244.739 489.556C245.743 489.808 246.891 490.312 248.039 491.32C249.044 492.329 249.618 493.463 249.761 494.346C249.905 495.102 249.761 495.606 249.618 495.606Z" fill="#06152B"/>
<path d="M244.74 499.262C244.453 499.388 243.735 497.749 242.013 496.615C240.291 495.354 238.426 495.102 238.426 494.85C238.426 494.598 240.578 494.598 242.587 495.984C244.596 497.245 245.027 499.136 244.74 499.262Z" fill="#06152B"/>
<path d="M257.367 491.447C257.08 491.573 255.932 489.178 253.349 487.161C250.766 485.019 248.039 484.262 248.183 484.01C248.183 483.758 251.34 484.262 254.066 486.531C256.793 488.8 257.51 491.447 257.367 491.447Z" fill="#06152B"/>
<path d="M262.676 481.363C262.533 481.489 260.667 479.976 257.941 478.968C255.214 477.833 252.775 477.707 252.775 477.581C252.775 477.329 255.358 477.203 258.371 478.338C261.241 479.346 262.82 481.237 262.676 481.363Z" fill="#06152B"/>
<path d="M267.125 471.405C266.981 471.531 265.259 469.64 262.246 468.758C259.232 467.749 256.649 468.38 256.649 468.128C256.649 468.002 257.223 467.749 258.371 467.623C259.519 467.497 261.098 467.497 262.676 468.002C264.255 468.506 265.546 469.262 266.264 470.018C266.981 470.775 267.125 471.279 267.125 471.405Z" fill="#06152B"/>
<path d="M263.106 466.867C263.106 466.867 263.107 466.363 263.681 465.607C264.111 464.85 264.972 463.716 266.407 462.582C267.125 462.077 267.842 461.447 269.134 461.321C269.708 461.321 270.569 461.699 270.856 462.203C271.143 462.834 270.999 463.464 270.856 463.968C269.851 466.111 266.838 467.498 263.968 466.867C261.098 466.237 259.232 463.968 258.945 461.699C258.945 461.195 258.945 460.439 259.519 460.061C260.093 459.556 260.954 459.556 261.528 459.935C262.676 460.439 263.107 461.321 263.537 461.951C264.398 463.338 264.829 464.598 264.972 465.481C265.116 466.363 265.116 466.867 265.116 466.867C264.972 466.867 264.829 464.85 262.963 462.203C262.533 461.573 261.959 460.817 261.098 460.439C260.667 460.313 260.237 460.313 260.093 460.565C259.806 460.817 259.663 461.195 259.806 461.699C260.093 463.59 261.815 465.607 264.255 466.111C266.694 466.615 269.421 465.481 270.138 463.716C270.282 463.338 270.425 462.834 270.282 462.456C270.138 462.077 269.851 461.951 269.421 461.951C268.56 461.951 267.699 462.456 266.981 462.96C263.968 464.977 263.25 466.993 263.106 466.867Z" fill="#06152B"/>
<path d="M207.285 434.345L208.577 462.329C208.577 462.329 176.72 472.791 176.289 477.959L237.994 477.833L238.138 434.219L207.285 434.345Z" fill="#FF69B4"/>
<g opacity="0.6">
<g opacity="0.6">
<path opacity="0.6" d="M227.661 459.934C228.809 460.186 229.67 461.446 229.383 462.455C229.096 463.463 227.804 464.219 226.513 463.967C225.365 463.715 224.217 462.329 224.647 461.32C225.078 460.312 226.657 459.429 227.805 460.06" fill="white"/>
</g>
</g>
<g opacity="0.6">
<path d="M237.994 477.833V473.547L178.585 475.312C178.585 475.312 175.859 476.32 176.146 478.085L237.994 477.833Z" fill="#93079F"/>
</g>
<path d="M207.572 462.076C207.572 462.328 209.15 462.455 210.585 463.337C212.164 464.093 212.881 465.354 213.168 465.228C213.455 465.228 213.025 463.589 211.159 462.581C209.294 461.446 207.428 461.824 207.572 462.076Z" fill="#06152B"/>
<path d="M201.114 464.345C201.114 464.597 202.405 465.102 203.41 466.11C204.414 467.244 204.701 468.379 204.988 468.379C205.275 468.379 205.419 466.866 204.127 465.48C202.836 464.219 201.114 464.093 201.114 464.345Z" fill="#06152B"/>
<path d="M197.383 471.152C197.67 471.152 198.1 469.891 197.239 468.379C196.522 466.866 195.087 466.362 194.943 466.614C194.8 466.866 195.661 467.623 196.378 468.757C196.952 470.017 197.096 471.152 197.383 471.152Z" fill="#06152B"/>
<path d="M208.002 455.648C208.146 455.9 209.581 455.522 211.159 455.648C212.881 455.774 214.173 456.152 214.316 456.026C214.46 455.774 213.168 454.892 211.159 454.766C209.294 454.513 207.859 455.396 208.002 455.648Z" fill="#263238"/>
<g opacity="0.3">
<path opacity="0.3" d="M207.572 439.891L207.716 444.807L238.138 444.555V440.017L207.572 439.891Z" fill="black"/>
</g>
<path d="M207.859 449.976C207.859 450.102 209.007 450.228 211.016 449.976C212.02 449.85 213.025 449.598 214.316 449.094C214.89 448.841 215.464 448.589 216.038 448.211C216.325 448.085 216.612 447.833 216.899 447.581C217.186 447.329 217.473 446.573 217.043 446.194C216.756 445.816 216.182 445.564 215.751 445.564C215.321 445.564 214.89 445.69 214.603 445.69C213.886 445.816 213.312 446.068 212.738 446.321C211.59 446.825 210.585 447.455 209.868 447.959C208.433 449.094 208.002 450.102 208.002 450.228C208.146 450.354 208.863 449.472 210.298 448.463C211.016 447.959 212.02 447.455 213.025 447.077C213.599 446.825 214.173 446.699 214.747 446.573C215.464 446.447 215.895 446.447 216.182 446.699C216.182 446.825 216.182 446.825 216.182 446.951C216.038 447.077 215.751 447.203 215.464 447.455C214.89 447.707 214.316 448.085 213.886 448.337C212.881 448.841 211.733 449.094 210.872 449.346C209.15 449.724 207.859 449.85 207.859 449.976Z" fill="#263238"/>
<path d="M208.289 450.354C208.433 450.354 209.007 449.471 209.15 447.707C209.15 446.824 209.15 445.816 208.72 444.681C208.576 444.177 208.289 443.547 207.859 443.043C207.428 442.539 206.998 441.782 205.85 441.656C205.276 441.656 204.702 442.034 204.558 442.412C204.415 442.791 204.271 443.043 204.271 443.421C204.128 444.051 204.128 444.681 204.271 445.312C204.415 446.446 204.989 447.454 205.563 448.085C206.711 449.471 208.002 449.849 208.002 449.723C208.146 449.597 206.998 449.093 206.137 447.707C205.706 447.076 205.276 446.194 205.132 445.186C205.132 444.681 205.132 444.177 205.132 443.673C205.276 443.043 205.419 442.665 205.706 442.665C205.993 442.665 206.567 443.043 206.854 443.547C207.141 444.051 207.428 444.555 207.572 445.06C208.002 446.068 208.146 446.95 208.146 447.707C208.433 449.345 208.146 450.354 208.289 450.354Z" fill="#263238"/>
<path d="M238.137 300.355C274.586 303.632 322.946 308.044 322.946 308.044L316.345 360.229C316.345 360.229 245.312 343.716 245.743 345.103C246.317 346.489 242.442 456.153 242.442 456.153H199.679L198.818 331.993C198.675 313.212 216.899 298.464 238.137 300.355Z" fill="#06152B"/>
<path d="M410.338 321.405V337.539C410.338 348.506 395.988 360.228 383.503 360.228H373.745C366.14 360.228 354.086 355.312 347.915 351.405L344.184 349.01L299.556 470.27C299.556 470.27 248.613 462.203 248.613 460.816C248.613 459.43 283.197 361.489 299.125 315.985C305.583 297.455 328.256 286.615 349.207 292.918C349.924 293.17 350.642 293.422 351.359 293.674C374.176 301.867 410.338 321.405 410.338 321.405Z" fill="#06152B"/>
<path d="M248.757 460.942C248.757 460.942 248.9 460.816 249.044 460.564C249.187 460.186 249.331 459.808 249.618 459.304C250.048 458.169 250.766 456.531 251.627 454.262C253.349 449.85 255.645 443.547 258.515 435.606C264.255 419.85 271.86 397.917 280.183 373.716C284.345 361.615 288.219 350.018 291.807 339.556C293.529 334.262 295.251 329.346 296.829 324.682C297.69 322.287 298.408 320.144 299.125 317.875C299.843 315.733 300.56 313.59 301.421 311.699C303.143 307.917 305.87 305.018 308.596 302.749C311.323 300.481 313.906 298.842 316.202 297.581C318.354 296.321 320.076 295.312 321.368 294.682C321.942 294.43 322.372 294.178 322.659 293.926C322.946 293.8 323.09 293.674 323.09 293.674C323.09 293.674 322.946 293.674 322.659 293.926C322.229 294.052 321.798 294.304 321.224 294.556C319.933 295.186 318.211 296.069 316.058 297.329C313.762 298.59 311.179 300.228 308.309 302.371C305.583 304.64 302.713 307.539 300.847 311.447C299.843 313.338 299.125 315.481 298.408 317.623C297.69 319.766 296.829 322.035 296.112 324.304C294.533 328.968 292.811 334.01 290.946 339.178C287.358 349.64 283.34 361.237 279.179 373.337C270.856 397.539 263.394 419.346 257.941 435.354C255.214 443.169 252.918 449.598 251.34 454.136C250.622 456.278 249.905 458.043 249.474 459.178C249.331 459.682 249.187 460.186 249.044 460.564C248.757 460.69 248.757 460.942 248.757 460.942Z" fill="#455A64"/>
<path d="M237.994 329.472C237.707 329.598 240.147 332.875 242.156 337.161C244.165 341.447 245.026 345.228 245.456 345.228C245.743 345.228 245.313 341.321 243.16 336.783C241.008 332.245 238.138 329.22 237.994 329.472Z" fill="#455A64"/>
<path d="M229.815 334.514C229.671 334.766 233.402 336.152 237.133 338.799C241.008 341.446 243.447 344.219 243.734 344.093C244.021 343.967 241.869 340.816 237.851 338.043C233.833 335.27 229.815 334.261 229.815 334.514Z" fill="#455A64"/>
<path d="M299.269 470.396C299.556 470.522 311.61 438.001 326.104 397.917C340.741 357.833 352.221 325.186 351.934 325.186C351.647 325.06 339.593 357.581 325.099 397.665C310.606 437.749 298.982 470.27 299.269 470.396Z" fill="#455A64"/>
<path d="M353.942 281.195L208.002 282.456L180.881 214.893L286.927 215.523L311.609 276.279L353.942 276.784V281.195Z" fill="#99B2C6"/>
<path d="M242.443 254.473C239.194 254.473 236.56 252.16 236.56 249.305C236.56 246.451 239.194 244.137 242.443 244.137C245.693 244.137 248.327 246.451 248.327 249.305C248.327 252.16 245.693 254.473 242.443 254.473Z" fill="white"/>
<path d="M365.851 98.4224C364.416 93.8846 360.685 91.7417 355.662 90.2291C350.64 88.7165 344.756 89.5989 340.595 92.372C337.725 94.2627 335.572 97.0358 332.272 98.0442C326.819 99.6829 320.361 96.1535 315.052 98.2963C311.895 99.5568 310.173 102.96 310.89 105.859C311.751 108.758 315.052 111.027 318.496 110.901C314.908 112.036 313.76 116.574 315.913 119.347C318.065 122.12 322.37 123.254 326.101 122.624C329.832 121.994 333.133 119.977 336.003 117.708C338.873 115.439 341.456 112.918 344.469 110.901C347.483 108.885 351.214 107.372 355.088 107.498C360.254 107.75 364.703 111.153 366.999 115.187C369.295 119.221 369.869 123.884 370.156 128.422C370.443 132.96 370.586 137.624 372.021 141.91C372.165 142.414 372.452 143.044 373.026 143.17C373.887 143.422 374.604 142.666 375.035 141.91C379.77 134.221 382.784 125.775 383.788 117.078C384.362 112.036 384.219 107.246 381.062 103.086C377.761 98.8005 369.725 95.6493 365.851 98.4224Z" fill="#06152B"/>
<path d="M375.895 119.473L378.478 170.523C378.909 179.221 377.617 192.078 361.976 192.078C348.343 191.196 344.325 179.977 344.038 171.91C343.895 168.128 343.608 164.851 343.608 164.473C343.608 164.473 328.827 163.843 326.962 150.986C326.101 144.809 325.527 131.952 325.24 120.229C324.809 107.75 335.572 97.0361 349.635 95.7756L351.07 95.6496C366.424 95.0193 375.465 105.986 375.895 119.473Z" fill="#FFAA8C"/>
<path d="M343.464 164.221C343.464 164.221 352.791 163.969 361.975 157.667C361.975 157.667 358.531 167.372 343.894 167.499L343.464 164.221Z" fill="#EB996E"/>
<path d="M330.547 128.422C330.691 129.431 331.695 130.187 332.843 130.061C333.991 130.061 334.852 129.179 334.852 128.17C334.709 127.162 333.704 126.406 332.556 126.532C331.265 126.658 330.404 127.414 330.547 128.422Z" fill="#263238"/>
<path d="M329.112 126.279C329.399 126.531 330.834 125.271 333.13 125.145C335.426 124.892 337.148 125.775 337.292 125.523C337.435 125.397 337.148 125.019 336.287 124.64C335.57 124.262 334.278 123.884 332.843 124.01C331.408 124.136 330.26 124.766 329.686 125.271C329.112 125.649 328.969 126.153 329.112 126.279Z" fill="#263238"/>
<path d="M352.647 127.035C352.79 128.044 353.795 128.8 354.943 128.674C356.091 128.674 356.952 127.792 356.952 126.783C356.808 125.775 355.804 125.018 354.656 125.144C353.364 125.271 352.503 126.027 352.647 127.035Z" fill="#263238"/>
<path d="M351.213 124.515C351.5 124.767 352.935 123.506 355.231 123.38C357.527 123.128 359.249 124.011 359.392 123.758C359.536 123.632 359.249 123.254 358.388 122.876C357.67 122.498 356.379 122.12 354.944 122.246C353.509 122.372 352.361 123.002 351.787 123.506C351.213 124.011 351.069 124.389 351.213 124.515Z" fill="#263238"/>
<path d="M344.898 139.892C344.898 139.766 343.463 139.64 341.167 139.64C340.593 139.64 340.019 139.64 339.876 139.262C339.732 138.884 339.876 138.38 340.019 137.75C340.45 136.489 340.88 135.103 341.311 133.716C343.033 128.044 344.181 123.38 343.894 123.38C343.607 123.38 342.028 127.918 340.306 133.59C339.876 134.976 339.445 136.363 339.158 137.624C339.015 138.254 338.728 138.884 339.158 139.64C339.302 140.018 339.876 140.271 340.163 140.271C340.593 140.397 340.88 140.271 341.167 140.271C343.463 140.145 344.898 140.018 344.898 139.892Z" fill="#263238"/>
<path d="M351.643 140.649C351.213 140.649 351.5 142.792 349.634 144.557C347.769 146.321 345.042 146.321 345.186 146.573C345.186 146.699 345.76 146.951 346.908 146.825C348.056 146.699 349.491 146.321 350.639 145.313C351.787 144.304 352.217 142.918 352.217 142.036C352.074 141.153 351.787 140.649 351.643 140.649Z" fill="#263238"/>
<path d="M349.635 116.826C349.922 117.33 352.074 116.826 354.801 116.952C357.527 116.952 359.68 117.456 359.967 116.952C360.11 116.7 359.68 116.196 358.675 115.818C357.814 115.439 356.379 115.061 354.801 115.061C353.222 115.061 351.787 115.439 350.926 115.818C350.065 116.196 349.635 116.574 349.635 116.826Z" fill="#263238"/>
<path d="M329.258 120.481C329.688 120.859 331.267 120.229 332.989 120.103C334.854 119.851 336.433 120.103 336.72 119.599C336.863 119.347 336.576 118.969 335.859 118.591C335.141 118.212 333.993 117.96 332.702 118.086C331.41 118.212 330.406 118.717 329.832 119.221C329.258 119.725 329.114 120.229 329.258 120.481Z" fill="#263238"/>
<path d="M375.753 129.053C376.04 128.927 385.511 125.524 386.228 134.347C386.946 143.171 376.757 142.036 376.757 141.784C376.757 141.406 375.753 129.053 375.753 129.053Z" fill="#FFBE9D"/>
<path d="M379.483 138.129C379.483 138.129 379.627 138.255 379.914 138.381C380.201 138.507 380.775 138.507 381.205 138.381C382.21 138.003 383.071 136.49 382.927 134.852C382.927 134.095 382.64 133.339 382.21 132.709C381.779 132.078 381.349 131.7 380.775 131.574C380.201 131.448 379.914 131.826 379.77 132.078C379.627 132.331 379.77 132.457 379.627 132.583C379.627 132.583 379.34 132.457 379.483 132.078C379.483 131.952 379.627 131.7 379.77 131.448C380.057 131.322 380.344 131.196 380.775 131.196C381.492 131.196 382.353 131.826 382.784 132.457C383.214 133.087 383.501 133.969 383.645 134.852C383.788 136.616 382.784 138.381 381.492 138.759C380.775 139.011 380.201 138.759 379.914 138.633C379.627 138.381 379.483 138.255 379.483 138.129Z" fill="#EB996E"/>
<path d="M321.797 117.835C328.398 118.717 335.429 116.574 340.021 112.414C343.322 109.389 345.474 105.356 349.779 103.717C352.649 102.583 356.093 102.835 358.963 103.969C361.833 105.104 364.273 106.868 366.569 108.885C364.56 115.692 367.286 122.751 370.013 129.305C370.3 130.061 370.73 130.818 371.448 131.196C372.739 131.826 374.461 131.07 375.322 130.061C376.757 128.423 377.188 126.154 377.331 124.137C377.762 119.347 377.331 114.431 375.466 109.893C373.744 105.356 370.587 101.196 366.282 98.1708C360.829 94.5153 353.797 93.0027 346.909 93.759C340.021 94.5153 333.707 97.2884 328.828 101.448C326.532 103.339 324.38 105.608 323.519 108.255" fill="#06152B"/>
<path d="M520.547 403.549C515.381 401.28 509.354 400.902 503.757 401.784C500.744 402.289 497.587 403.045 495.434 405.062C493.425 407.078 492.995 410.608 495.291 412.373C496.726 413.381 498.735 413.507 500.6 413.507C505.049 413.507 509.928 412.751 513.515 415.146C515.524 416.532 516.959 418.675 519.255 419.431C521.695 420.062 524.278 418.801 525.569 416.91C526.861 415.02 526.861 412.625 526.287 410.608C526.43 410.482 525.713 405.818 520.547 403.549Z" fill="#03A89E"/>
<path d="M532.313 383.633C529.156 387.541 523.129 386.28 520.259 383.885C517.389 381.49 516.241 377.961 515.093 374.683C512.653 367.12 510.07 359.179 511.936 351.49C512.51 349.221 513.514 346.952 515.38 345.188C517.245 343.423 520.115 342.415 522.698 343.045C525.712 343.801 527.721 346.448 529.012 348.843C533.03 356.28 535.183 364.347 535.183 372.541C535.326 376.448 534.752 380.482 532.313 383.633Z" fill="#03A89E"/>
<path d="M540.922 389.305C537.478 385.776 536.904 380.608 538.339 376.196C539.918 371.784 543.218 368.003 547.236 364.852C551.828 361.196 557.281 358.423 563.165 356.658C565.461 355.902 567.9 355.398 570.34 355.65C572.779 355.902 575.219 356.91 576.367 358.801C578.089 361.574 576.367 364.978 574.645 367.751C571.631 372.667 568.044 377.331 564.169 381.742C561.012 385.272 557.425 388.801 552.689 390.314C547.954 391.952 542.931 391.7 540.492 388.801" fill="#03A89E"/>
<path d="M532.6 442.876C532.6 442.876 532.456 442.246 532.313 441.112C532.169 439.851 532.026 438.212 531.739 436.196C531.452 434.179 531.165 431.658 530.447 429.011C529.873 426.364 528.725 423.465 527.434 420.565C526.142 417.666 524.42 415.019 522.555 413.002C520.689 410.86 518.393 409.347 516.384 408.465C514.375 407.582 512.51 407.204 511.218 407.078C509.927 406.952 509.209 406.826 509.209 406.826C509.209 406.826 509.927 406.826 511.218 406.826C512.51 406.952 514.519 407.204 516.671 408.086C518.824 408.969 521.263 410.481 523.272 412.624C525.281 414.767 527.003 417.414 528.295 420.439C529.586 423.339 530.591 426.238 531.165 429.011C531.739 431.658 532.026 434.179 532.313 436.196C532.456 438.212 532.6 439.977 532.6 441.112C532.6 442.246 532.6 442.876 532.6 442.876Z" fill="#06152B"/>
<path d="M532.169 439.095C532.169 439.095 532.169 438.843 532.169 438.213C532.169 437.582 532.169 436.826 532.169 435.818C532.169 433.801 532.169 430.776 532.026 427.12C531.882 419.809 531.165 411.868 529.73 400.776C528.438 390.314 526.716 378.087 524.851 370.146C524.42 368.381 523.99 366.742 523.703 365.356C523.272 363.969 522.985 362.709 522.698 361.7C522.411 360.818 522.268 360.062 522.124 359.431C521.981 358.927 521.981 358.675 521.981 358.675C521.981 358.675 522.124 358.927 522.268 359.431C522.411 360.062 522.698 360.818 522.985 361.7C523.272 362.709 523.703 363.843 524.133 365.356C524.564 366.742 524.994 368.381 525.425 370.146C527.29 377.33 529.156 387.414 530.591 398.507C532.026 409.725 532.6 419.809 532.6 427.246C532.6 430.902 532.6 433.927 532.456 435.944C532.456 436.952 532.313 437.708 532.313 438.339C532.169 438.843 532.169 439.095 532.169 439.095Z" fill="#06152B"/>
<path d="M532.169 419.431C532.169 419.431 532.169 418.549 532.169 416.91C532.313 415.271 532.456 413.002 533.03 410.229C533.604 407.456 534.322 404.053 535.47 400.523C536.044 398.885 537.192 394.851 540.062 388.927C543.936 380.86 549.102 374.305 553.694 370.271C554.699 369.137 555.99 368.381 556.851 367.624C557.282 367.246 557.712 366.868 558.286 366.616C558.717 366.364 559.147 366.112 559.578 365.86C561.013 364.977 561.874 364.473 562.017 364.473C562.161 364.599 558.717 366.49 554.268 370.523C549.82 374.683 544.797 381.112 540.923 389.053C538.77 393.339 537.335 397.246 536.187 400.523C535.039 404.053 534.178 407.456 533.604 410.229C533.03 413.002 532.743 415.271 532.456 416.91C532.313 418.675 532.169 419.431 532.169 419.431Z" fill="#06152B"/>
<path d="M553.695 454.095L551.399 480.943H512.08L509.784 454.095H553.695Z" fill="#FFD66B"/>
<path d="M505.047 443.507H557.424V454.095H505.047V443.507Z" fill="#FFD66B"/>
<path d="M551.814 486.009L554.12 480.967H509.635L512.212 486.009H551.814Z" fill="#FFD66B"/>
<path d="M510.644 462.793C510.644 462.793 510.644 462.919 510.788 463.045C510.931 463.171 511.075 463.423 511.362 463.675C511.936 464.305 512.653 465.188 513.658 466.196L513.801 466.322C515.236 464.557 517.102 462.288 519.398 459.515H519.111C520.833 461.658 522.698 463.927 524.707 466.448L524.851 466.7L524.994 466.448C527.003 464.305 529.299 462.036 531.595 459.515H531.165C531.308 459.641 531.452 459.767 531.595 459.894C533.604 462.162 535.613 464.305 537.479 466.322L537.622 466.574L537.766 466.322C539.775 463.801 541.64 461.532 543.362 459.389H543.075C545.802 462.162 548.098 464.431 549.963 466.196L550.107 466.322L550.25 466.196C551.111 464.809 551.829 463.801 552.403 463.045C552.69 462.667 552.833 462.415 552.977 462.162C553.12 461.91 553.12 461.91 553.12 461.91C553.12 461.91 552.977 462.036 552.833 462.162C552.69 462.415 552.403 462.667 552.259 462.919C551.685 463.675 550.968 464.683 549.963 466.07H550.107C548.385 464.305 546.089 461.91 543.362 459.137L543.219 459.011L543.075 459.137C541.353 461.28 539.488 463.549 537.479 465.944H537.909C536.044 463.927 534.035 461.658 532.026 459.515C531.882 459.389 531.739 459.263 531.595 459.137L531.452 458.885L531.308 459.137C529.012 461.532 526.86 463.927 524.707 466.07H525.138C523.129 463.549 521.263 461.28 519.541 459.263L519.398 459.011L519.254 459.263C517.102 462.036 515.093 464.431 513.801 466.196H513.945C512.94 465.188 512.079 464.305 511.505 463.675C511.218 463.423 511.075 463.171 510.931 463.045C510.644 462.919 510.644 462.793 510.644 462.793Z" fill="#030229"/>
<path d="M531.309 454.095C519.183 454.095 509.353 453.982 509.353 453.843C509.353 453.704 519.183 453.591 531.309 453.591C543.434 453.591 553.264 453.704 553.264 453.843C553.264 453.982 543.434 454.095 531.309 454.095Z" fill="#455A64"/>
<path d="M124.056 158.926L151.321 259.262H143.715L116.737 158.926H124.056Z" fill="white"/>
<path d="M134.532 224.976C134.963 226.867 122.048 281.573 122.048 281.573H128.218L137.976 238.211L134.532 224.976Z" fill="white"/>
<path d="M43.5512 353.926H171.553V473.17H43.5512V353.926Z" fill="#99B2C6"/>
<path d="M37.0939 371.321H43.408V376.867H37.0939V371.321Z" fill="white"/>
<path d="M37.0939 388.842H43.408V394.388H37.0939V388.842Z" fill="white"/>
<path d="M37.0939 406.489H43.408V412.035H37.0939V406.489Z" fill="white"/>
<path d="M37.0939 424.009H43.408V429.555H37.0939V424.009Z" fill="white"/>
<path d="M36.95 408.001C36.95 408.001 36.2325 407.875 35.0845 407.623C33.793 407.497 32.071 407.119 29.6315 407.119C27.3355 407.119 24.4655 407.497 21.8825 408.883C20.591 409.64 19.2995 410.648 18.582 412.035C17.721 413.421 17.434 414.934 17.5775 416.572C17.721 418.085 18.295 419.598 19.156 420.858C20.017 422.119 21.165 423.127 22.4565 423.883C24.896 425.522 27.6225 426.152 29.9185 426.53C32.2145 426.782 34.08 426.782 35.3715 426.656C36.663 426.53 37.3805 426.404 37.3805 426.404C37.3805 426.404 36.663 426.404 35.3715 426.404C34.08 426.404 32.2145 426.404 30.062 426.026C27.9095 425.648 25.3265 424.892 22.887 423.379C20.591 421.867 18.4385 419.346 18.295 416.446C18.1515 414.934 18.4385 413.547 19.156 412.287C19.8735 411.026 21.0215 410.144 22.1695 409.388C24.609 408.001 27.3355 407.623 29.6315 407.497C31.9275 407.497 33.6495 407.623 34.941 407.749C36.2325 408.001 36.95 408.127 36.95 408.001Z" fill="white"/>
<path d="M38.5291 390.606C38.5291 390.606 38.3856 390.48 37.9551 390.228C37.5246 390.102 36.9506 389.85 36.0896 389.598C34.3676 389.094 31.7846 388.716 28.7711 389.22C28.0536 389.346 27.1926 389.598 26.4751 389.976C25.7576 390.354 25.0401 391.111 24.7531 391.993C24.1791 393.632 24.8966 395.522 26.1881 397.035C26.9056 397.791 27.7666 398.422 28.7711 398.8C29.7756 399.178 31.2106 399.178 32.2151 398.674C33.2196 398.169 34.224 397.161 34.224 396.027C34.224 394.892 33.3631 393.758 32.2151 393.254C31.0671 392.749 29.7755 392.749 28.484 392.875C27.336 393.127 26.1881 393.632 25.3271 394.262C23.4616 395.522 22.3135 397.413 22.17 399.304C21.883 401.195 22.7441 402.959 23.7486 404.346C24.8966 405.732 26.3316 406.615 27.6231 407.245C30.4931 408.506 33.0761 408.758 34.7981 408.884C35.6591 408.884 36.3766 409.01 36.8071 409.01C37.2376 409.01 37.5246 409.01 37.5246 409.01C37.5246 409.01 36.5201 408.884 34.7981 408.758C33.0761 408.506 30.6366 408.253 27.9101 406.993C26.6186 406.363 25.1835 405.48 24.179 404.22C23.1745 402.959 22.457 401.321 22.744 399.556C23.031 397.791 24.0356 396.153 25.7576 395.018C26.6186 394.388 27.6231 394.01 28.6276 393.758C29.6321 393.506 30.7801 393.632 31.7846 394.01C32.7891 394.388 33.3631 395.27 33.3631 396.153C33.3631 397.035 32.6456 397.791 31.7846 398.296C30.9236 398.8 29.7756 398.8 28.9146 398.422C27.9101 398.169 27.1926 397.539 26.6186 396.909C25.3271 395.648 24.7531 393.884 25.1836 392.371C25.6141 390.859 27.1926 390.102 28.7711 389.85C31.7846 389.22 34.2241 389.598 35.9461 389.976C37.6681 390.228 38.5291 390.733 38.5291 390.606Z" fill="white"/>
<path d="M38.3857 373.464C38.3857 373.464 37.9552 373.338 36.9507 373.212C36.0897 373.212 34.6547 373.212 33.0762 373.716C31.4977 374.22 29.7757 375.102 28.3407 376.489C26.9057 378.001 25.9012 380.018 25.9012 382.287C25.7577 384.556 26.6187 386.699 27.9102 388.211C29.2017 389.724 30.9237 390.732 32.5022 391.237C34.0807 391.741 35.3722 391.867 36.2332 391.867C37.0942 391.867 37.6682 391.741 37.6682 391.741C37.6682 391.615 35.5157 391.993 32.6457 390.732C31.2107 390.102 29.6322 389.22 28.4842 387.707C27.1927 386.195 26.4752 384.304 26.6187 382.161C26.7622 380.018 27.6232 378.127 28.9147 376.741C30.2062 375.354 31.9282 374.472 33.3632 373.968C36.3767 373.212 38.3857 373.59 38.3857 373.464Z" fill="white"/>
<path d="M133.525 290.649C133.525 290.649 132.951 291.405 132.377 292.918C131.803 294.43 131.229 296.699 130.655 299.724C130.081 302.749 129.651 306.405 129.22 310.565C128.79 314.85 128.359 319.64 127.642 325.06C127.498 326.447 127.211 327.707 126.924 329.094C126.637 330.481 126.207 331.867 125.489 333.128C124.772 334.388 123.624 335.523 122.332 336.531C121.041 337.539 119.749 338.548 118.171 339.304C115.157 340.943 111.57 342.077 107.839 342.455C104.108 342.833 100.09 342.329 96.5024 340.691C92.9149 339.178 90.0449 336.153 89.1839 332.623C88.7534 330.859 88.8968 328.968 89.6143 327.203C90.3318 325.439 91.7669 324.052 93.6324 323.044C95.3544 322.035 97.5069 321.405 99.6594 321.279C101.812 321.153 104.108 321.657 105.83 322.918C106.691 323.548 107.408 324.178 107.839 325.06C108.269 325.943 108.413 326.825 108.269 327.833C107.839 329.724 106.26 331.363 104.251 332.245C102.242 333.254 99.9464 333.632 97.6504 333.884C95.3544 334.136 93.0583 334.262 90.9058 334.262C86.3138 334.388 81.8653 334.01 77.5603 333.632C68.8068 332.749 60.3403 331.489 52.3043 331.489C44.2683 331.363 36.3758 332.371 29.7748 335.27C26.4743 336.657 23.6043 338.548 21.4518 340.817C19.1558 343.086 17.7208 345.733 17.1468 348.38C15.8553 353.8 17.2903 358.842 19.5863 362.623C22.0258 366.405 25.3263 368.926 28.0528 370.564C30.9228 372.203 33.3623 373.212 35.0843 373.716C36.8063 374.22 37.6673 374.472 37.6673 374.472C37.6673 374.472 37.3803 374.346 36.9498 374.22C36.5193 374.094 35.8018 373.842 35.0843 373.59C33.3623 372.959 30.9228 372.077 28.1963 370.312C25.4698 368.548 22.1693 366.027 19.8733 362.371C17.5773 358.716 16.2858 353.674 17.5773 348.506C18.2948 345.985 19.5863 343.338 21.8823 341.195C24.0348 339.052 26.9048 337.161 30.0618 335.901C36.5193 333.128 44.2683 332.119 52.3043 332.245C60.3403 332.371 68.8068 333.632 77.5603 334.388C82.0089 334.766 86.4573 335.144 91.0493 335.018C93.3453 335.018 95.6414 334.892 97.9374 334.64C100.233 334.388 102.673 334.01 104.682 333.002C106.834 331.993 108.556 330.228 108.987 328.086C109.274 327.077 108.987 325.943 108.556 324.934C107.982 323.926 107.265 323.17 106.26 322.539C104.395 321.279 101.955 320.775 99.6594 320.775C97.3634 320.901 95.0674 321.531 93.2019 322.665C91.3363 323.8 89.7578 325.312 88.8968 327.203C88.0358 329.094 88.0359 331.111 88.4664 332.875C89.4709 336.657 92.4844 339.682 96.2154 341.321C99.9464 342.959 104.108 343.464 107.839 343.086C111.713 342.707 115.301 341.573 118.458 339.934C120.036 339.052 121.471 338.17 122.619 337.035C123.911 335.901 125.059 334.892 125.92 333.506C126.637 332.119 127.068 330.733 127.355 329.346C127.642 327.96 127.929 326.573 128.072 325.312C128.79 320.018 129.22 315.102 129.651 310.817C130.081 306.531 130.512 302.876 130.942 299.976C131.373 296.951 131.947 294.682 132.521 293.17C132.808 292.413 132.951 291.783 133.238 291.531C133.382 290.775 133.525 290.649 133.525 290.649Z" fill="white"/>
<path d="M50.727 468.127C50.727 468.127 50.727 468.001 50.727 467.623C50.727 467.245 50.727 466.741 50.727 466.11C50.727 464.724 50.727 462.833 50.727 460.186C50.727 455.018 50.727 447.455 50.8705 437.875C50.8705 418.716 51.014 391.363 51.014 358.59L50.727 358.842C84.593 358.842 124.199 358.842 166.532 358.842L166.101 358.464C166.101 398.8 166.101 436.363 166.101 468.001L166.388 467.749C131.661 467.749 102.818 467.875 82.584 467.875C72.3955 467.875 64.503 467.875 59.05 468.001C56.3235 468.001 54.3145 468.001 52.8795 468.001C51.4445 468.127 50.727 468.127 50.727 468.127C50.727 468.127 51.4445 468.127 52.8795 468.127C54.3145 468.127 56.3235 468.127 59.05 468.127C64.503 468.127 72.3955 468.127 82.4405 468.253C102.674 468.253 131.661 468.379 166.532 468.379H166.819V468.127C166.819 436.489 166.819 398.8 166.819 358.59V358.212H166.388C124.199 358.212 84.593 358.212 50.5835 358.212H50.2965V358.464C50.2965 391.237 50.44 418.716 50.44 437.875C50.44 447.455 50.44 455.018 50.5835 460.186C50.5835 462.707 50.5835 464.724 50.5835 465.984C50.5835 466.615 50.5835 467.119 50.5835 467.497C50.727 468.001 50.727 468.127 50.727 468.127Z" fill="white"/>
<path d="M83.8747 372.582C83.5577 372.582 83.3007 372.356 83.3007 372.078C83.3007 371.799 83.5577 371.574 83.8747 371.574C84.1918 371.574 84.4487 371.799 84.4487 372.078C84.4487 372.356 84.1918 372.582 83.8747 372.582Z" fill="#263238"/>
<path d="M80.7182 372.581C80.4012 372.581 80.1442 372.356 80.1442 372.077C80.1442 371.799 80.4012 371.573 80.7182 371.573C81.0353 371.573 81.2922 371.799 81.2922 372.077C81.2922 372.356 81.0353 372.581 80.7182 372.581Z" fill="#263238"/>
<path d="M77.4171 372.581C77.1001 372.581 76.8431 372.356 76.8431 372.077C76.8431 371.799 77.1001 371.573 77.4171 371.573C77.7341 371.573 77.9911 371.799 77.9911 372.077C77.9911 372.356 77.7341 372.581 77.4171 372.581Z" fill="#263238"/>
<path d="M74.0264 372.658C73.7093 372.658 73.4524 372.432 73.4524 372.154C73.4524 371.875 73.7093 371.649 74.0264 371.649C74.3434 371.649 74.6003 371.875 74.6003 372.154C74.6003 372.432 74.3434 372.658 74.0264 372.658Z" fill="#263238"/>
<path d="M70.7264 372.658C70.4094 372.658 70.1524 372.432 70.1524 372.154C70.1524 371.875 70.4094 371.649 70.7264 371.649C71.0434 371.649 71.3004 371.875 71.3004 372.154C71.3004 372.432 71.0434 372.658 70.7264 372.658Z" fill="#263238"/>
<path d="M67.5159 372.581C67.1988 372.581 66.9419 372.356 66.9419 372.077C66.9419 371.799 67.1988 371.573 67.5159 371.573C67.8329 371.573 68.0898 371.799 68.0898 372.077C68.0898 372.356 67.8329 372.581 67.5159 372.581Z" fill="#263238"/>
<path d="M64.3602 372.581C64.0432 372.581 63.7862 372.356 63.7862 372.077C63.7862 371.799 64.0432 371.573 64.3602 371.573C64.6772 371.573 64.9342 371.799 64.9342 372.077C64.9342 372.356 64.6772 372.581 64.3602 372.581Z" fill="#263238"/>
<path d="M65.7949 374.598C65.4778 374.598 65.2209 374.373 65.2209 374.094C65.2209 373.816 65.4778 373.59 65.7949 373.59C66.1119 373.59 66.3689 373.816 66.3689 374.094C66.3689 374.373 66.1119 374.598 65.7949 374.598Z" fill="#263238"/>
<path d="M69.0041 374.675C68.6871 374.675 68.4301 374.449 68.4301 374.171C68.4301 373.892 68.6871 373.667 69.0041 373.667C69.3211 373.667 69.5781 373.892 69.5781 374.171C69.5781 374.449 69.3211 374.675 69.0041 374.675Z" fill="#263238"/>
<path d="M72.4474 374.675C72.1304 374.675 71.8734 374.449 71.8734 374.171C71.8734 373.892 72.1304 373.667 72.4474 373.667C72.7644 373.667 73.0214 373.892 73.0214 374.171C73.0214 374.449 72.7644 374.675 72.4474 374.675Z" fill="#263238"/>
<path d="M75.7484 374.675C75.4313 374.675 75.1744 374.449 75.1744 374.171C75.1744 373.892 75.4313 373.667 75.7484 373.667C76.0654 373.667 76.3224 373.892 76.3224 374.171C76.3224 374.449 76.0654 374.675 75.7484 374.675Z" fill="#263238"/>
<path d="M79.1405 374.598C78.8235 374.598 78.5665 374.373 78.5665 374.094C78.5665 373.816 78.8235 373.59 79.1405 373.59C79.4575 373.59 79.7145 373.816 79.7145 374.094C79.7145 374.373 79.4575 374.598 79.1405 374.598Z" fill="#263238"/>
<path d="M82.5835 374.598C82.2665 374.598 82.0095 374.373 82.0095 374.094C82.0095 373.816 82.2665 373.59 82.5835 373.59C82.9005 373.59 83.1575 373.816 83.1575 374.094C83.1575 374.373 82.9005 374.598 82.5835 374.598Z" fill="#263238"/>
<path d="M83.8751 376.741C83.5581 376.741 83.3011 376.515 83.3011 376.237C83.3011 375.958 83.5581 375.732 83.8751 375.732C84.1921 375.732 84.4491 375.958 84.4491 376.237C84.4491 376.515 84.1921 376.741 83.8751 376.741Z" fill="#263238"/>
<path d="M80.7182 376.741C80.4012 376.741 80.1442 376.515 80.1442 376.237C80.1442 375.958 80.4012 375.732 80.7182 375.732C81.0353 375.732 81.2922 375.958 81.2922 376.237C81.2922 376.515 81.0353 376.741 80.7182 376.741Z" fill="#263238"/>
<path d="M77.4171 376.741C77.1001 376.741 76.8431 376.515 76.8431 376.237C76.8431 375.958 77.1001 375.732 77.4171 375.732C77.7341 375.732 77.9911 375.958 77.9911 376.237C77.9911 376.515 77.7341 376.741 77.4171 376.741Z" fill="#263238"/>
<path d="M74.0264 376.817C73.7093 376.817 73.4524 376.591 73.4524 376.313C73.4524 376.034 73.7093 375.809 74.0264 375.809C74.3434 375.809 74.6003 376.034 74.6003 376.313C74.6003 376.591 74.3434 376.817 74.0264 376.817Z" fill="#263238"/>
<path d="M70.7264 376.817C70.4094 376.817 70.1524 376.591 70.1524 376.313C70.1524 376.034 70.4094 375.809 70.7264 375.809C71.0434 375.809 71.3004 376.034 71.3004 376.313C71.3004 376.591 71.0434 376.817 70.7264 376.817Z" fill="#263238"/>
<path d="M67.5159 376.741C67.1988 376.741 66.9419 376.515 66.9419 376.237C66.9419 375.958 67.1988 375.732 67.5159 375.732C67.8329 375.732 68.0898 375.958 68.0898 376.237C68.0898 376.515 67.8329 376.741 67.5159 376.741Z" fill="#263238"/>
<path d="M64.3602 376.741C64.0432 376.741 63.7862 376.515 63.7862 376.237C63.7862 375.958 64.0432 375.732 64.3602 375.732C64.6772 375.732 64.9342 375.958 64.9342 376.237C64.9342 376.515 64.6772 376.741 64.3602 376.741Z" fill="#263238"/>
<path d="M65.7949 378.631C65.4778 378.631 65.2209 378.406 65.2209 378.127C65.2209 377.849 65.4778 377.623 65.7949 377.623C66.1119 377.623 66.3689 377.849 66.3689 378.127C66.3689 378.406 66.1119 378.631 65.7949 378.631Z" fill="#263238"/>
<path d="M69.0041 378.708C68.6871 378.708 68.4301 378.482 68.4301 378.203C68.4301 377.925 68.6871 377.699 69.0041 377.699C69.3211 377.699 69.5781 377.925 69.5781 378.203C69.5781 378.482 69.3211 378.708 69.0041 378.708Z" fill="#263238"/>
<path d="M72.4474 378.708C72.1304 378.708 71.8734 378.482 71.8734 378.203C71.8734 377.925 72.1304 377.699 72.4474 377.699C72.7644 377.699 73.0214 377.925 73.0214 378.203C73.0214 378.482 72.7644 378.708 72.4474 378.708Z" fill="#263238"/>
<path d="M75.7484 378.708C75.4313 378.708 75.1744 378.482 75.1744 378.203C75.1744 377.925 75.4313 377.699 75.7484 377.699C76.0654 377.699 76.3224 377.925 76.3224 378.203C76.3224 378.482 76.0654 378.708 75.7484 378.708Z" fill="#263238"/>
<path d="M79.1405 378.631C78.8235 378.631 78.5665 378.406 78.5665 378.127C78.5665 377.849 78.8235 377.623 79.1405 377.623C79.4575 377.623 79.7145 377.849 79.7145 378.127C79.7145 378.406 79.4575 378.631 79.1405 378.631Z" fill="#263238"/>
<path d="M82.5835 378.631C82.2665 378.631 82.0095 378.406 82.0095 378.127C82.0095 377.849 82.2665 377.623 82.5835 377.623C82.9005 377.623 83.1575 377.849 83.1575 378.127C83.1575 378.406 82.9005 378.631 82.5835 378.631Z" fill="#263238"/>
<path d="M83.8751 380.901C83.5581 380.901 83.3011 380.675 83.3011 380.397C83.3011 380.118 83.5581 379.893 83.8751 379.893C84.1921 379.893 84.4491 380.118 84.4491 380.397C84.4491 380.675 84.1921 380.901 83.8751 380.901Z" fill="#263238"/>
<path d="M80.7182 380.901C80.4012 380.901 80.1442 380.675 80.1442 380.397C80.1442 380.118 80.4012 379.893 80.7182 379.893C81.0353 379.893 81.2922 380.118 81.2922 380.397C81.2922 380.675 81.0353 380.901 80.7182 380.901Z" fill="#263238"/>
<path d="M77.4171 380.901C77.1001 380.901 76.8431 380.675 76.8431 380.397C76.8431 380.118 77.1001 379.893 77.4171 379.893C77.7341 379.893 77.9911 380.118 77.9911 380.397C77.9911 380.675 77.7341 380.901 77.4171 380.901Z" fill="#263238"/>
<path d="M74.0264 380.978C73.7093 380.978 73.4524 380.752 73.4524 380.473C73.4524 380.195 73.7093 379.969 74.0264 379.969C74.3434 379.969 74.6003 380.195 74.6003 380.473C74.6003 380.752 74.3434 380.978 74.0264 380.978Z" fill="#263238"/>
<path d="M70.7264 380.978C70.4094 380.978 70.1524 380.752 70.1524 380.473C70.1524 380.195 70.4094 379.969 70.7264 379.969C71.0434 379.969 71.3004 380.195 71.3004 380.473C71.3004 380.752 71.0434 380.978 70.7264 380.978Z" fill="#263238"/>
<path d="M67.5159 380.901C67.1988 380.901 66.9419 380.675 66.9419 380.397C66.9419 380.118 67.1988 379.893 67.5159 379.893C67.8329 379.893 68.0898 380.118 68.0898 380.397C68.0898 380.675 67.8329 380.901 67.5159 380.901Z" fill="#263238"/>
<path d="M64.3602 380.901C64.0432 380.901 63.7862 380.675 63.7862 380.397C63.7862 380.118 64.0432 379.893 64.3602 379.893C64.6772 379.893 64.9342 380.118 64.9342 380.397C64.9342 380.675 64.6772 380.901 64.3602 380.901Z" fill="#263238"/>
<path d="M65.7949 382.792C65.4778 382.792 65.2209 382.566 65.2209 382.287C65.2209 382.009 65.4778 381.783 65.7949 381.783C66.1119 381.783 66.3689 382.009 66.3689 382.287C66.3689 382.566 66.1119 382.792 65.7949 382.792Z" fill="#263238"/>
<path d="M69.0041 382.868C68.6871 382.868 68.4301 382.643 68.4301 382.364C68.4301 382.086 68.6871 381.86 69.0041 381.86C69.3211 381.86 69.5781 382.086 69.5781 382.364C69.5781 382.643 69.3211 382.868 69.0041 382.868Z" fill="#263238"/>
<path d="M72.4474 382.868C72.1304 382.868 71.8734 382.643 71.8734 382.364C71.8734 382.086 72.1304 381.86 72.4474 381.86C72.7644 381.86 73.0214 382.086 73.0214 382.364C73.0214 382.643 72.7644 382.868 72.4474 382.868Z" fill="#263238"/>
<path d="M75.7484 382.868C75.4313 382.868 75.1744 382.643 75.1744 382.364C75.1744 382.086 75.4313 381.86 75.7484 381.86C76.0654 381.86 76.3224 382.086 76.3224 382.364C76.3224 382.643 76.0654 382.868 75.7484 382.868Z" fill="#263238"/>
<path d="M79.1405 382.792C78.8235 382.792 78.5665 382.566 78.5665 382.287C78.5665 382.009 78.8235 381.783 79.1405 381.783C79.4575 381.783 79.7145 382.009 79.7145 382.287C79.7145 382.566 79.4575 382.792 79.1405 382.792Z" fill="#263238"/>
<path d="M82.5835 382.792C82.2665 382.792 82.0095 382.566 82.0095 382.287C82.0095 382.009 82.2665 381.783 82.5835 381.783C82.9005 381.783 83.1575 382.009 83.1575 382.287C83.1575 382.566 82.9005 382.792 82.5835 382.792Z" fill="#263238"/>
<path d="M550.536 281.574V293.674H474.625V473.17H467.593V293.674L150.315 295.061V473.17H143.427V294.683L94.4932 295.061V280.565L550.536 281.574Z" fill="#3A36DB"/>
<path d="M501.89 291.279L471.898 310.187L474.625 312.456L504.76 292.414L501.89 291.279Z" fill="#FF69B4"/>
<path d="M115.158 293.044L150.029 314.851L147.446 316.994L112.432 294.179L115.158 293.044Z" fill="#FF69B4"/>
<path d="M361.547 277.161H440.041V282.203H361.547V277.161Z" fill="#263238"/>
</svg>
